<svg xmlns="http://www.w3.org/2000/svg" preserveAspectRatio="xMidYMid" viewBox="0 0 512 221"><title>Bolt</title><path d="M250.801 55.627c46.897 0 70.756 27.37 70.756 61.582 0 40.507-32.361 77.182-79.257 77.182s-70.756-27.37-70.756-61.581c0-40.508 32.361-77.183 79.257-77.183m-1.92 43.518c-16.454 0-26.876 14.78-26.876 31.201 0 13.138 8.502 20.527 22.215 20.527 16.454 0 26.876-14.78 26.876-31.2 0-13.138-8.502-20.528-22.215-20.528M498.976 0l-5.9 22.839-7.952 36.072H512l-9.6 42.697h-26.876l-7.13 32.297c-.548 2.462-.822 5.2-.822 6.295 0 6.295 3.839 10.673 12.34 10.673 2.469 0 6.034-.82 6.857-1.368v39.412c-5.21 3.559-14.535 5.474-23.585 5.474-28.522 0-48.816-10.4-48.816-33.391 0-1.915.275-6.569 1.097-10.4l10.696-48.992h-21.94l9.598-42.697h21.94l7.953-36.128zm-87.152 8.55L371.51 191.108h-49.364L362.46 8.551zm-316.165 0L81.4 72.87c11.517-12.59 22.214-17.243 35.925-17.243 29.62 0 49.365 19.432 49.365 55.013 0 36.675-22.762 83.751-69.933 83.751-15.083 0-29.893-5.474-38.394-17.242l-2.999 13.88L0 220.38l5.977-29.353L46.295 8.551zm-1.92 90.595c-7.678 0-14.26 3.284-20.02 9.032l-7.678 33.664c5.21 5.748 13.163 9.032 21.94 9.032 15.632 0 27.698-12.863 27.698-29.832 0-13.138-10.147-21.896-21.94-21.896"/></svg>
