<svg xmlns="http://www.w3.org/2000/svg" preserveAspectRatio="xMidYMid" viewBox="0 0 256 157"><title>OXC</title><path fill="#32f3ef" d="M150.739 25.361a7.58 7.58 0 0 0 7.582 7.583h28.764c3.379 0 5.069 4.085 2.68 6.467l-36.811 36.811a7.58 7.58 0 0 0-2.221 5.364v12.586c0 5.233 5.191 8.866 9.783 6.367a68.5 68.5 0 0 0 12.967-9.141c1.558-1.393 3.957-1.408 5.437.078l26.809 26.811c1.479 1.48 1.488 3.882-.045 5.313-20.331 19.026-47.66 30.679-77.704 30.679S70.609 142.626 50.278 123.6c-1.533-1.431-1.526-3.833-.045-5.313l26.809-26.811c1.48-1.479 3.879-1.471 5.437-.078a68.5 68.5 0 0 0 12.967 9.141c4.601 2.499 9.785-1.134 9.785-6.367V81.586a7.58 7.58 0 0 0-2.225-5.364L66.197 39.411c-2.391-2.389-.699-6.467 2.68-6.467h28.764a7.58 7.58 0 0 0 7.583-7.583V6.402a3.79 3.79 0 0 1 3.79-3.792h37.912a3.79 3.79 0 0 1 3.79 3.792v18.959z" style="stroke-width:10.455"/><g mask="url(#oxc-a)" transform="translate(-597.868 .032)scale(10.45498)"><g filter="url(#oxc-b)"><ellipse cx="1.48" cy="6.893" fill="#0a0a0a" rx="1.48" ry="6.893" transform="matrix(0 -1 -1 0 76.277 16.466)"/></g><g filter="url(#oxc-c)"><ellipse cx="1.48" cy="6.893" fill="#0f8" rx="1.48" ry="6.893" transform="rotate(68.34 31.37 67.115)scale(-1 1)"/></g><g filter="url(#oxc-d)"><ellipse cx="63.551" cy="14.356" fill="#195eff" rx="1.48" ry="6.893" transform="rotate(-68.34 63.551 14.356)"/></g><g filter="url(#oxc-e)"><ellipse cx="72.12" cy="9.509" fill="#0a0a0a" rx="1.191" ry="2.01" transform="rotate(-135.197 72.12 9.509)"/></g><g filter="url(#oxc-f)"><ellipse cx="72.733" cy="8.404" fill="#195eff" rx="1.191" ry="2.01" transform="rotate(-135.197 72.733 8.404)"/></g><g filter="url(#oxc-g)"><ellipse cx="72.61" cy="2.265" fill="#0a0a0a" rx="1.191" ry="2.01" transform="rotate(-135.197 72.61 2.265)"/></g><g filter="url(#oxc-h)"><ellipse cx="72.979" cy="1.774" fill="#195eff" rx="1.191" ry="2.01" transform="rotate(-135.197 72.98 1.774)"/></g><g filter="url(#oxc-i)"><ellipse cx="1.191" cy="2.01" fill="#0a0a0a" rx="1.191" ry="2.01" transform="rotate(-44.803 48.285 -75.76)scale(1 -1)"/></g><g filter="url(#oxc-j)"><ellipse cx="1.191" cy="2.01" fill="#195eff" rx="1.191" ry="2.01" transform="rotate(-44.803 46.515 -75.27)scale(1 -1)"/></g><g filter="url(#oxc-k)"><ellipse cx="1.191" cy="2.01" fill="#0a0a0a" rx="1.191" ry="2.01" transform="rotate(135.197 32.342 15.982)scale(-1 1)"/></g><g filter="url(#oxc-l)"><ellipse cx="1.191" cy="2.01" fill="#195eff" rx="1.191" ry="2.01" transform="rotate(-44.803 37.816 -78.68)scale(1 -1)"/></g><g filter="url(#oxc-m)"><ellipse cx="1.191" cy="3.831" fill="#195eff" rx="1.191" ry="3.831" transform="rotate(-44.803 44.79 -76.156)scale(1 -1)"/></g><g filter="url(#oxc-n)"><ellipse cx="74.385" cy="4.902" fill="#0f8" rx="1.191" ry="3.831" transform="rotate(-135.197 74.385 4.902)"/></g><g filter="url(#oxc-o)"><ellipse cx="1.48" cy="6.893" fill="#195eff" rx="1.48" ry="6.893" transform="matrix(0 -1 -1 0 76.277 17.08)"/></g></g><path fill="#ffffff" d="M13.881.017c-18.483 26.456-18.592 67.465 0 94.015h12.487C7.782 67.482 7.89 26.473 26.368.017zm125.426 0H126.82c18.482 26.456 18.591 67.465 0 94.015h12.487c18.588-26.55 18.479-67.559 0-94.015" style="stroke-width:6.268" transform="translate(.226 .005)scale(1.66807)"/><mask id="oxc-a" width="16" height="15" x="61" y="0" maskUnits="userSpaceOnUse" style="mask-type:alpha"><path fill="#d9d9d9" d="M71.603 2.422c0 .401.325.726.725.726h2.751c.324 0 .485.39.257.618l-3.521 3.521a.73.73 0 0 0-.213.513v1.204c0 .5.497.848.936.609a6.5 6.5 0 0 0 1.24-.874.38.38 0 0 1 .52.007l2.564 2.565a.353.353 0 0 1-.004.508 10.84 10.84 0 0 1-7.432 2.934 10.84 10.84 0 0 1-7.432-2.934.353.353 0 0 1-.004-.508l2.564-2.565a.38.38 0 0 1 .52-.007c.376.337.793.631 1.24.874.44.239.936-.108.936-.61V7.8a.73.73 0 0 0-.213-.513l-3.52-3.52a.362.362 0 0 1 .256-.62h2.751c.4 0 .725-.324.725-.725V.61c0-.2.163-.363.363-.363h3.626c.2 0 .363.163.363.363v1.813z"/></mask><defs><filter id="oxc-b" width="19.679" height="8.854" x="59.545" y="10.559" color-interpolation-filters="sRGB" filterUnits="userSpaceOnUse"><feFlood flood-opacity="0" result="BackgroundImageFix"/><feBlend in="SourceGraphic" in2="BackgroundImageFix" result="shape"/><feGaussianBlur result="effect1_foregroundBlur_242_21098" stdDeviation="1.473"/></filter><filter id="oxc-c" width="18.753" height="11.679" x="65.838" y="8.517" color-interpolation-filters="sRGB" filterUnits="userSpaceOnUse"><feFlood flood-opacity="0" result="BackgroundImageFix"/><feBlend in="SourceGraphic" in2="BackgroundImageFix" result="shape"/><feGaussianBlur result="effect1_foregroundBlur_242_21098" stdDeviation="1.473"/></filter><filter id="oxc-d" width="18.753" height="11.679" x="54.175" y="8.517" color-interpolation-filters="sRGB" filterUnits="userSpaceOnUse"><feFlood flood-opacity="0" result="BackgroundImageFix"/><feBlend in="SourceGraphic" in2="BackgroundImageFix" result="shape"/><feGaussianBlur result="effect1_foregroundBlur_242_21098" stdDeviation="1.473"/></filter><filter id="oxc-e" width="9.192" height="9.203" x="67.524" y="4.907" color-interpolation-filters="sRGB" filterUnits="userSpaceOnUse"><feFlood flood-opacity="0" result="BackgroundImageFix"/><feBlend in="SourceGraphic" in2="BackgroundImageFix" result="shape"/><feGaussianBlur result="effect1_foregroundBlur_242_21098" stdDeviation="1.473"/></filter><filter id="oxc-f" width="9.192" height="9.203" x="68.137" y="3.803" color-interpolation-filters="sRGB" filterUnits="userSpaceOnUse"><feFlood flood-opacity="0" result="BackgroundImageFix"/><feBlend in="SourceGraphic" in2="BackgroundImageFix" result="shape"/><feGaussianBlur result="effect1_foregroundBlur_242_21098" stdDeviation="1.473"/></filter><filter id="oxc-g" width="9.192" height="9.203" x="68.014" y="-2.336" color-interpolation-filters="sRGB" filterUnits="userSpaceOnUse"><feFlood flood-opacity="0" result="BackgroundImageFix"/><feBlend in="SourceGraphic" in2="BackgroundImageFix" result="shape"/><feGaussianBlur result="effect1_foregroundBlur_242_21098" stdDeviation="1.473"/></filter><filter id="oxc-h" width="9.192" height="9.203" x="68.383" y="-2.827" color-interpolation-filters="sRGB" filterUnits="userSpaceOnUse"><feFlood flood-opacity="0" result="BackgroundImageFix"/><feBlend in="SourceGraphic" in2="BackgroundImageFix" result="shape"/><feGaussianBlur result="effect1_foregroundBlur_242_21098" stdDeviation="1.473"/></filter><filter id="oxc-i" width="9.192" height="9.203" x="62.244" y="5.153" color-interpolation-filters="sRGB" filterUnits="userSpaceOnUse"><feFlood flood-opacity="0" result="BackgroundImageFix"/><feBlend in="SourceGraphic" in2="BackgroundImageFix" result="shape"/><feGaussianBlur result="effect1_foregroundBlur_242_21098" stdDeviation="1.473"/></filter><filter id="oxc-j" width="9.192" height="9.203" x="61.385" y="4.048" color-interpolation-filters="sRGB" filterUnits="userSpaceOnUse"><feFlood flood-opacity="0" result="BackgroundImageFix"/><feBlend in="SourceGraphic" in2="BackgroundImageFix" result="shape"/><feGaussianBlur result="effect1_foregroundBlur_242_21098" stdDeviation="1.473"/></filter><filter id="oxc-k" width="9.192" height="9.203" x="61.385" y="-2.336" color-interpolation-filters="sRGB" filterUnits="userSpaceOnUse"><feFlood flood-opacity="0" result="BackgroundImageFix"/><feBlend in="SourceGraphic" in2="BackgroundImageFix" result="shape"/><feGaussianBlur result="effect1_foregroundBlur_242_21098" stdDeviation="1.473"/></filter><filter id="oxc-l" width="9.192" height="9.203" x="61.261" y="-3.073" color-interpolation-filters="sRGB" filterUnits="userSpaceOnUse"><feFlood flood-opacity="0" result="BackgroundImageFix"/><feBlend in="SourceGraphic" in2="BackgroundImageFix" result="shape"/><feGaussianBlur result="effect1_foregroundBlur_242_21098" stdDeviation="1.473"/></filter><filter id="oxc-m" width="11.551" height="11.584" x="59.045" y=".092" color-interpolation-filters="sRGB" filterUnits="userSpaceOnUse"><feFlood flood-opacity="0" result="BackgroundImageFix"/><feBlend in="SourceGraphic" in2="BackgroundImageFix" result="shape"/><feGaussianBlur result="effect1_foregroundBlur_242_21098" stdDeviation="1.473"/></filter><filter id="oxc-n" width="11.551" height="11.584" x="68.609" y="-.89" color-interpolation-filters="sRGB" filterUnits="userSpaceOnUse"><feFlood flood-opacity="0" result="BackgroundImageFix"/><feBlend in="SourceGraphic" in2="BackgroundImageFix" result="shape"/><feGaussianBlur result="effect1_foregroundBlur_242_21098" stdDeviation="1.473"/></filter><filter id="oxc-o" width="19.679" height="8.854" x="59.545" y="11.173" color-interpolation-filters="sRGB" filterUnits="userSpaceOnUse"><feFlood flood-opacity="0" result="BackgroundImageFix"/><feBlend in="SourceGraphic" in2="BackgroundImageFix" result="shape"/><feGaussianBlur result="effect1_foregroundBlur_242_21098" stdDeviation="1.473"/></filter></defs></svg>
